<?xml version="1.0" encoding="utf-8"?>
<!-- Generator: Adobe Illustrator 20.1.0, SVG Export Plug-In . SVG Version: 6.00 Build 0)  -->
<!DOCTYPE svg PUBLIC "-//W3C//DTD SVG 1.1//EN" "http://www.w3.org/Graphics/SVG/1.1/DTD/svg11.dtd">
<svg version="1.1" id="Layer_1" xmlns="http://www.w3.org/2000/svg" xmlns:xlink="http://www.w3.org/1999/xlink" x="0px" y="0px"
	 viewBox="0 0 55 58.3" style="enable-background:new 0 0 55 58.3;" xml:space="preserve">
<style type="text/css">
	.st0{fill:#FFFFFF;}
	.st1{fill:#f36f23;}
</style>
<circle class="st0" cx="27.8" cy="29" r="23.8"/>
<g>
	<path class="st1" d="M26.8,45.9V30c0-0.4,0.3-0.7,0.7-0.7c0.4,0,0.7,0.3,0.7,0.7v16c0,0.4-0.3,0.7-0.7,0.7
		C27.1,46.6,26.8,46.3,26.8,45.9"/>
	<path class="st1" d="M26.8,26.7c0-0.2,0.1-0.4,0.2-0.5c0.1-0.1,0.3-0.2,0.5-0.2c0.2,0,0.4,0.1,0.5,0.2c0.3,0.3,0.3,0.7,0,1
		c-0.1,0.1-0.3,0.2-0.5,0.2c-0.2,0-0.4-0.1-0.5-0.2C26.9,27.1,26.8,26.9,26.8,26.7"/>
	<path class="st1" d="M26.8,23.5V12.3c0-0.4,0.3-0.7,0.7-0.7c0.4,0,0.7,0.3,0.7,0.7v11.1c0,0.4-0.3,0.7-0.7,0.7
		C27.1,24.2,26.8,23.8,26.8,23.5"/>
	<path class="st1" d="M19.4,33.3c0-0.2,0.1-0.5,0.3-0.6c0.3-0.2,0.8-0.1,1,0.2l6.8,11.6l6.8-11.6c0.2-0.3,0.6-0.4,1-0.2
		c0.3,0.2,0.4,0.6,0.2,1l-7.5,12.7c-0.1,0.2-0.4,0.3-0.6,0.3c-0.2,0-0.5-0.1-0.6-0.3l-7.4-12.6C19.4,33.5,19.4,33.4,19.4,33.3"/>
</g>
</svg>
