<?xml version="1.0" encoding="utf-8"?>
<!-- Generator: Adobe Illustrator 15.0.0, SVG Export Plug-In . SVG Version: 6.00 Build 0)  -->
<!DOCTYPE svg PUBLIC "-//W3C//DTD SVG 1.1//EN" "http://www.w3.org/Graphics/SVG/1.1/DTD/svg11.dtd">
<svg version="1.1" id="Layer_1" xmlns="http://www.w3.org/2000/svg" xmlns:xlink="http://www.w3.org/1999/xlink" x="0px" y="0px"
	 width="244.546px" height="88.963px" viewBox="0 0 244.546 88.963" enable-background="new 0 0 244.546 88.963"
	 xml:space="preserve">
<polygon fill="#414042" points="79.004,35.158 86.54,35.158 90.109,56.418 90.188,56.418 93.918,35.158 103.278,35.158 
	107.166,56.418 107.245,56.418 110.853,35.158 118.032,35.158 111.845,62.847 102.366,62.847 98.439,41.586 98.361,41.586 
	94.71,62.847 85.151,62.847 "/>
<g>
	<g>
		<g>
			<defs>
				<rect id="SVGID_1_" width="244.546" height="88.963"/>
			</defs>
			<clipPath id="SVGID_2_">
				<use xlink:href="#SVGID_1_"  overflow="visible"/>
			</clipPath>
			<path clip-path="url(#SVGID_2_)" fill="#414042" d="M133.94,50.549c0-2.382-1.11-4.325-3.967-4.325
				c-2.577,0-3.806,1.943-3.968,4.325H133.94z M126.087,54.594c0.395,2.855,2.576,3.966,6.065,3.966c1.943,0,4.166-0.436,6.31-1.584
				v5.037c-2.301,0.912-4.918,1.31-7.576,1.31c-6.824,0-12.019-4.007-12.019-10.828c0-6.822,4.64-10.788,11.066-10.788
				c7.652,0,10.431,5.436,10.431,11.581v1.31L126.087,54.594L126.087,54.594z"/>
		</g>
	</g>
	<g>
		<g>
			<defs>
				<rect id="SVGID_3_" width="244.546" height="88.963"/>
			</defs>
			<clipPath id="SVGID_4_">
				<use xlink:href="#SVGID_3_"  overflow="visible"/>
			</clipPath>
			<path clip-path="url(#SVGID_4_)" fill="#414042" d="M144.093,42.179h6.506v3.808h0.08c1.426-2.978,4.281-4.282,7.533-4.282
				c5.637,0,7.896,3.966,7.896,8.25v12.892h-7.144v-9.996c0-3.891-1.346-5.197-3.291-5.197c-2.934,0-4.44,2.022-4.44,6.468v8.728
				h-7.142V42.179H144.093z"/>
		</g>
	</g>
	<g>
		<g>
			<defs>
				<rect id="SVGID_5_" width="244.546" height="88.963"/>
			</defs>
			<clipPath id="SVGID_6_">
				<use xlink:href="#SVGID_5_"  overflow="visible"/>
			</clipPath>
			<path clip-path="url(#SVGID_6_)" fill="#414042" d="M186.733,48.09c-1.312-0.794-2.616-1.151-4.323-1.151
				c-3.092,0-5.472,2.145-5.472,5.711c0,3.291,2.774,5.437,5.869,5.437c1.626,0,3.253-0.356,4.444-0.989l0.156,5.312
				c-1.785,0.598-3.93,0.908-5.83,0.908c-6.82,0-12.02-3.965-12.02-10.785c0-6.862,5.195-10.827,12.02-10.827
				c2.142,0,4.045,0.356,5.674,1.148L186.733,48.09z"/>
		</g>
	</g>
	<g>
		<g>
			<defs>
				<rect id="SVGID_7_" width="244.546" height="88.963"/>
			</defs>
			<clipPath id="SVGID_8_">
				<use xlink:href="#SVGID_7_"  overflow="visible"/>
			</clipPath>
			<path clip-path="url(#SVGID_8_)" fill="#414042" d="M206.05,52.531c0-3.093-1.35-5.831-4.641-5.831
				c-3.293,0-4.643,2.738-4.643,5.831c0,3.053,1.35,5.793,4.643,5.793S206.05,55.584,206.05,52.531 M189.394,52.531
				c0-6.861,5.193-10.827,12.018-10.827c6.819,0,12.021,3.966,12.021,10.827c0,6.821-5.199,10.788-12.021,10.788
				C194.587,63.319,189.394,59.353,189.394,52.531"/>
		</g>
	</g>
	<g>
		<g>
			<defs>
				<rect id="SVGID_9_" width="244.546" height="88.963"/>
			</defs>
			<clipPath id="SVGID_10_">
				<use xlink:href="#SVGID_9_"  overflow="visible"/>
			</clipPath>
			<path clip-path="url(#SVGID_10_)" fill="#414042" d="M217.949,37.755c0.467,0,0.787-0.08,0.787-0.604
				c0-0.467-0.501-0.523-0.891-0.523h-0.694v1.127H217.949z M216.171,35.876h1.72c1.161,0,1.823,0.342,1.823,1.366
				c0,0.833-0.5,1.16-1.207,1.218l1.207,1.981h-1.004l-1.092-1.936h-0.47v1.936h-0.979v-4.565H216.171z M217.824,41.376
				c1.629,0,2.928-1.299,2.928-3.201c0-1.89-1.299-3.2-2.928-3.2c-1.65,0-2.93,1.311-2.93,3.2
				C214.894,40.078,216.171,41.376,217.824,41.376 M217.824,34.065c2.266,0,4.109,1.843,4.109,4.11c0,2.266-1.844,4.111-4.109,4.111
				c-2.268,0-4.113-1.845-4.113-4.111C213.71,35.908,215.556,34.065,217.824,34.065"/>
		</g>
	</g>
	<g>
		<g>
			<defs>
				<rect id="SVGID_11_" width="244.546" height="88.963"/>
			</defs>
			<clipPath id="SVGID_12_">
				<use xlink:href="#SVGID_11_"  overflow="visible"/>
			</clipPath>
			<path clip-path="url(#SVGID_12_)" fill="#F36F23" d="M55.181,78.438c-0.724-0.334-1.663-0.494-2.415-0.494
				c-2.186,0-3.395,1.469-3.395,3.385c0,1.904,1.18,3.342,3.18,3.342c0.508,0,0.911-0.054,1.234-0.136v-2.442H51.8v-1.474h3.783
				v5.044c-0.994,0.27-2.026,0.48-3.032,0.48c-3.031,0-5.139-1.517-5.139-4.681c0-3.196,1.959-4.997,5.139-4.997
				c1.085,0,1.945,0.149,2.749,0.393L55.181,78.438z"/>
		</g>
	</g>
	<g>
		<g>
			<defs>
				<rect id="SVGID_13_" width="244.546" height="88.963"/>
			</defs>
			<clipPath id="SVGID_14_">
				<use xlink:href="#SVGID_13_"  overflow="visible"/>
			</clipPath>
			<path clip-path="url(#SVGID_14_)" fill="#F36F23" d="M61.728,81.853c-0.054-0.871-0.457-1.623-1.464-1.623
				c-1.004,0-1.513,0.696-1.595,1.623H61.728z M62.935,85.597c-0.658,0.361-1.408,0.547-2.374,0.547c-2.282,0-3.61-1.311-3.61-3.58
				c0-1.998,1.061-3.645,3.208-3.645c2.561,0,3.286,1.755,3.286,4.168h-4.776c0.083,1.112,0.858,1.746,1.972,1.746
				c0.873,0,1.625-0.323,2.294-0.7V85.597z"/>
		</g>
	</g>
	<g>
		<g>
			<defs>
				<rect id="SVGID_15_" width="244.546" height="88.963"/>
			</defs>
			<clipPath id="SVGID_16_">
				<use xlink:href="#SVGID_15_"  overflow="visible"/>
			</clipPath>
			<path clip-path="url(#SVGID_16_)" fill="#F36F23" d="M65.445,80.392h-1.329V79.08h1.329v-1.379l1.784-0.574v1.953h1.587v1.312
				h-1.587v3.219c0,0.593,0.16,1.143,0.839,1.143c0.32,0,0.628-0.066,0.816-0.188l0.053,1.42c-0.375,0.109-0.789,0.162-1.322,0.162
				c-1.398,0-2.17-0.871-2.17-2.236V80.392z"/>
		</g>
	</g>
	<g>
		<g>
			<defs>
				<rect id="SVGID_17_" width="244.546" height="88.963"/>
			</defs>
			<clipPath id="SVGID_18_">
				<use xlink:href="#SVGID_17_"  overflow="visible"/>
			</clipPath>
			<path clip-path="url(#SVGID_18_)" fill="#F36F23" d="M70.64,80.392h-1.326V79.08h1.326v-1.379l1.798-0.574v1.953h1.597v1.312
				h-1.597v3.219c0,0.593,0.162,1.143,0.846,1.143c0.322,0,0.632-0.066,0.818-0.188l0.055,1.42
				c-0.376,0.109-0.792,0.162-1.329,0.162c-1.408,0-2.188-0.871-2.188-2.236V80.392z"/>
		</g>
	</g>
	<g>
		<g>
			<defs>
				<rect id="SVGID_19_" width="244.546" height="88.963"/>
			</defs>
			<clipPath id="SVGID_20_">
				<use xlink:href="#SVGID_19_"  overflow="visible"/>
			</clipPath>
			<path clip-path="url(#SVGID_20_)" fill="#F36F23" d="M75.31,79.08h1.798v6.903H75.31V79.08z M75.31,76.108h1.798v1.714H75.31
				V76.108z"/>
		</g>
	</g>
	<g>
		<g>
			<defs>
				<rect id="SVGID_21_" width="244.546" height="88.963"/>
			</defs>
			<clipPath id="SVGID_22_">
				<use xlink:href="#SVGID_21_"  overflow="visible"/>
			</clipPath>
			<path clip-path="url(#SVGID_22_)" fill="#F36F23" d="M78.999,79.08h1.705v0.937h0.027c0.561-0.787,1.329-1.095,2.266-1.095
				c1.637,0,2.348,1.146,2.348,2.704v4.357h-1.797v-3.688c0-0.845-0.014-1.985-1.167-1.985c-1.302,0-1.583,1.409-1.583,2.295v3.379
				H79L78.999,79.08L78.999,79.08z"/>
		</g>
	</g>
	<g>
		<g>
			<defs>
				<rect id="SVGID_23_" width="244.546" height="88.963"/>
			</defs>
			<clipPath id="SVGID_24_">
				<use xlink:href="#SVGID_23_"  overflow="visible"/>
			</clipPath>
			<path clip-path="url(#SVGID_24_)" fill="#F36F23" d="M91.745,82.456c0-1.182-0.457-2.146-1.503-2.146
				c-1.221,0-1.61,1.129-1.61,2.188c0,0.938,0.497,2.092,1.53,2.092C91.288,84.589,91.745,83.61,91.745,82.456 M93.542,79.08v6.233
				c0,1.877-0.753,3.647-3.647,3.647c-0.711,0-1.533-0.106-2.389-0.47l0.147-1.53c0.55,0.296,1.449,0.604,2.011,0.604
				c1.986,0,2.081-1.488,2.081-2.684h-0.027c-0.338,0.59-1.142,1.098-2.147,1.098c-2.037,0-2.817-1.635-2.817-3.484
				c0-1.662,0.858-3.575,2.925-3.575c0.913,0,1.624,0.308,2.118,1.095h0.028V79.08H93.542z"/>
		</g>
	</g>
	<g>
		<g>
			<defs>
				<rect id="SVGID_25_" width="244.546" height="88.963"/>
			</defs>
			<clipPath id="SVGID_26_">
				<use xlink:href="#SVGID_25_"  overflow="visible"/>
			</clipPath>
			<polygon clip-path="url(#SVGID_26_)" fill="#F36F23" points="99.285,76.629 102.289,76.629 104.516,83.716 104.542,83.716 
				106.769,76.629 109.774,76.629 109.774,85.985 107.978,85.985 107.978,78.269 107.951,78.269 105.426,85.985 103.63,85.985 
				101.108,78.269 101.081,78.294 101.081,85.985 99.285,85.985 			"/>
		</g>
	</g>
	<g>
		<g>
			<defs>
				<rect id="SVGID_27_" width="244.546" height="88.963"/>
			</defs>
			<clipPath id="SVGID_28_">
				<use xlink:href="#SVGID_27_"  overflow="visible"/>
			</clipPath>
			<path clip-path="url(#SVGID_28_)" fill="#F36F23" d="M114.952,84.751c1.381,0,1.744-1.234,1.744-2.389
				c0-1.061-0.563-2.051-1.744-2.051c-1.168,0-1.73,1.018-1.73,2.051C113.222,83.504,113.583,84.751,114.952,84.751 M114.952,78.922
				c2.053,0,3.624,1.375,3.624,3.656c0,1.985-1.331,3.565-3.624,3.565c-2.281,0-3.609-1.58-3.609-3.565
				C111.343,80.297,112.913,78.922,114.952,78.922"/>
		</g>
	</g>
	<g>
		<g>
			<defs>
				<rect id="SVGID_29_" width="244.546" height="88.963"/>
			</defs>
			<clipPath id="SVGID_30_">
				<use xlink:href="#SVGID_29_"  overflow="visible"/>
			</clipPath>
			<path clip-path="url(#SVGID_30_)" fill="#F36F23" d="M120.024,79.08h1.597v1.563h0.026c0.078-0.643,0.818-1.724,1.89-1.724
				c0.176,0,0.363,0,0.553,0.052v1.809c-0.164-0.096-0.484-0.146-0.805-0.146c-1.46,0-1.46,1.822-1.46,2.815v2.534h-1.798
				L120.024,79.08L120.024,79.08z"/>
		</g>
	</g>
	<g>
		<g>
			<defs>
				<rect id="SVGID_31_" width="244.546" height="88.963"/>
			</defs>
			<clipPath id="SVGID_32_">
				<use xlink:href="#SVGID_31_"  overflow="visible"/>
			</clipPath>
			<path clip-path="url(#SVGID_32_)" fill="#F36F23" d="M129.294,81.853c-0.055-0.871-0.457-1.623-1.463-1.623
				s-1.518,0.696-1.598,1.623H129.294z M130.5,85.597c-0.656,0.361-1.408,0.547-2.371,0.547c-2.28,0-3.608-1.311-3.608-3.58
				c0-1.998,1.06-3.645,3.206-3.645c2.562,0,3.283,1.755,3.283,4.168h-4.773c0.08,1.112,0.859,1.746,1.973,1.746
				c0.873,0,1.625-0.323,2.293-0.7v1.464H130.5z"/>
		</g>
	</g>
	<g>
		<g>
			<defs>
				<rect id="SVGID_33_" width="244.546" height="88.963"/>
			</defs>
			<clipPath id="SVGID_34_">
				<use xlink:href="#SVGID_33_"  overflow="visible"/>
			</clipPath>
			<path clip-path="url(#SVGID_34_)" fill="#414042" d="M140.44,84.669c1.921,0,2.631-1.702,2.631-3.395
				c0-1.647-0.764-3.33-2.631-3.33c-1.862,0-2.628,1.683-2.628,3.33C137.812,82.967,138.521,84.669,140.44,84.669 M140.44,76.468
				c2.938,0,4.59,1.987,4.59,4.809c0,2.83-1.625,4.869-4.59,4.869c-3.002,0-4.586-1.998-4.586-4.869
				C135.854,78.414,137.46,76.468,140.44,76.468"/>
		</g>
	</g>
	<g>
		<g>
			<defs>
				<rect id="SVGID_35_" width="244.546" height="88.963"/>
			</defs>
			<clipPath id="SVGID_36_">
				<use xlink:href="#SVGID_35_"  overflow="visible"/>
			</clipPath>
			<path clip-path="url(#SVGID_36_)" fill="#414042" d="M152.931,85.983h-1.704v-0.938h-0.026c-0.551,0.67-1.328,1.099-2.265,1.099
				c-1.64,0-2.351-1.15-2.351-2.707V79.08h1.799v3.685c0,0.846,0.013,1.985,1.166,1.985c1.3,0,1.582-1.408,1.582-2.296V79.08h1.798
				L152.931,85.983L152.931,85.983z"/>
		</g>
	</g>
	<g>
		<g>
			<defs>
				<rect id="SVGID_37_" width="244.546" height="88.963"/>
			</defs>
			<clipPath id="SVGID_38_">
				<use xlink:href="#SVGID_37_"  overflow="visible"/>
			</clipPath>
			<path clip-path="url(#SVGID_38_)" fill="#414042" d="M155.371,80.392h-1.326V79.08h1.326v-1.379l1.801-0.574v1.953h1.596v1.312
				h-1.596v3.219c0,0.593,0.158,1.143,0.846,1.143c0.32,0,0.63-0.066,0.816-0.188l0.054,1.42c-0.375,0.109-0.79,0.162-1.33,0.162
				c-1.405,0-2.187-0.871-2.187-2.236V80.392L155.371,80.392z"/>
		</g>
	</g>
	<g>
		<g>
			<defs>
				<rect id="SVGID_39_" width="244.546" height="88.963"/>
			</defs>
			<clipPath id="SVGID_40_">
				<use xlink:href="#SVGID_39_"  overflow="visible"/>
			</clipPath>
			<path clip-path="url(#SVGID_40_)" fill="#414042" d="M166.897,84.751c1.382,0,1.741-1.234,1.741-2.389
				c0-1.061-0.562-2.051-1.741-2.051c-1.167,0-1.731,1.018-1.731,2.051C165.166,83.504,165.529,84.751,166.897,84.751
				 M166.897,78.922c2.05,0,3.621,1.375,3.621,3.656c0,1.985-1.329,3.565-3.621,3.565c-2.282,0-3.61-1.58-3.61-3.565
				C163.289,80.297,164.856,78.922,166.897,78.922"/>
		</g>
	</g>
	<g>
		<g>
			<defs>
				<rect id="SVGID_41_" width="244.546" height="88.963"/>
			</defs>
			<clipPath id="SVGID_42_">
				<use xlink:href="#SVGID_41_"  overflow="visible"/>
			</clipPath>
			<path clip-path="url(#SVGID_42_)" fill="#414042" d="M172.583,80.392h-1.328V79.08h1.328v-0.962c0-1.383,0.776-2.346,2.201-2.346
				c0.457,0,0.965,0.066,1.312,0.146l-0.146,1.486c-0.16-0.096-0.392-0.241-0.779-0.241c-0.604,0-0.793,0.522-0.793,1.062v0.854
				h1.572v1.312h-1.572v5.592h-1.797v-5.592H172.583L172.583,80.392z"/>
		</g>
	</g>
	<g>
		<g>
			<defs>
				<rect id="SVGID_43_" width="244.546" height="88.963"/>
			</defs>
			<clipPath id="SVGID_44_">
				<use xlink:href="#SVGID_43_"  overflow="visible"/>
			</clipPath>
			<polygon clip-path="url(#SVGID_44_)" fill="#414042" points="183.519,82.283 180.096,76.629 182.296,76.629 184.509,80.552 
				186.764,76.629 188.75,76.629 185.397,82.283 185.397,85.985 183.519,85.985 			"/>
		</g>
	</g>
	<g>
		<g>
			<defs>
				<rect id="SVGID_45_" width="244.546" height="88.963"/>
			</defs>
			<clipPath id="SVGID_46_">
				<use xlink:href="#SVGID_45_"  overflow="visible"/>
			</clipPath>
			<path clip-path="url(#SVGID_46_)" fill="#414042" d="M191.753,84.751c1.384,0,1.746-1.234,1.746-2.389
				c0-1.061-0.565-2.051-1.746-2.051c-1.166,0-1.729,1.018-1.729,2.051C190.025,83.504,190.387,84.751,191.753,84.751
				 M191.753,78.922c2.055,0,3.621,1.375,3.621,3.656c0,1.985-1.326,3.565-3.621,3.565c-2.279,0-3.606-1.58-3.606-3.565
				C188.147,80.297,189.716,78.922,191.753,78.922"/>
		</g>
	</g>
	<g>
		<g>
			<defs>
				<rect id="SVGID_47_" width="244.546" height="88.963"/>
			</defs>
			<clipPath id="SVGID_48_">
				<use xlink:href="#SVGID_47_"  overflow="visible"/>
			</clipPath>
			<path clip-path="url(#SVGID_48_)" fill="#414042" d="M203.128,85.983h-1.701v-0.938h-0.028c-0.549,0.67-1.325,1.099-2.265,1.099
				c-1.641,0-2.35-1.15-2.35-2.707V79.08h1.799v3.685c0,0.846,0.013,1.985,1.166,1.985c1.301,0,1.584-1.408,1.584-2.296V79.08h1.795
				V85.983L203.128,85.983z"/>
		</g>
	</g>
	<g>
		<g>
			<defs>
				<rect id="SVGID_49_" width="244.546" height="88.963"/>
			</defs>
			<clipPath id="SVGID_50_">
				<use xlink:href="#SVGID_49_"  overflow="visible"/>
			</clipPath>
			<path clip-path="url(#SVGID_50_)" fill="#414042" d="M205.022,79.08h1.597v1.563h0.026c0.081-0.643,0.817-1.724,1.894-1.724
				c0.176,0,0.361,0,0.549,0.052v1.809c-0.162-0.096-0.482-0.146-0.803-0.146c-1.464,0-1.464,1.822-1.464,2.815v2.534h-1.799V79.08
				L205.022,79.08z"/>
		</g>
	</g>
	<g>
		<g>
			<defs>
				<rect id="SVGID_51_" width="244.546" height="88.963"/>
			</defs>
			<clipPath id="SVGID_52_">
				<use xlink:href="#SVGID_51_"  overflow="visible"/>
			</clipPath>
			<polygon clip-path="url(#SVGID_52_)" fill="#414042" points="214.091,76.629 217.095,76.629 219.32,83.716 219.352,83.716 
				221.576,76.629 224.582,76.629 224.582,85.985 222.785,85.985 222.785,78.269 222.757,78.269 220.236,85.985 218.438,85.985 
				215.917,78.269 215.888,78.294 215.888,85.985 214.091,85.985 			"/>
		</g>
	</g>
	<g>
		<g>
			<defs>
				<rect id="SVGID_53_" width="244.546" height="88.963"/>
			</defs>
			<clipPath id="SVGID_54_">
				<use xlink:href="#SVGID_53_"  overflow="visible"/>
			</clipPath>
			<path clip-path="url(#SVGID_54_)" fill="#414042" d="M226.634,79.08h1.796v6.903h-1.796V79.08z M226.634,76.108h1.796v1.714
				h-1.796V76.108z"/>
		</g>
	</g>
	<g>
		<g>
			<defs>
				<rect id="SVGID_55_" width="244.546" height="88.963"/>
			</defs>
			<clipPath id="SVGID_56_">
				<use xlink:href="#SVGID_55_"  overflow="visible"/>
			</clipPath>
			<path clip-path="url(#SVGID_56_)" fill="#414042" d="M230.321,79.08h1.706v0.937h0.025c0.564-0.787,1.332-1.095,2.27-1.095
				c1.625,0,2.333,1.146,2.333,2.704v4.357h-1.786v-3.688c0-0.845-0.013-1.985-1.166-1.985c-1.303,0-1.582,1.409-1.582,2.295v3.379
				h-1.8V79.08L230.321,79.08z"/>
		</g>
	</g>
	<g>
		<g>
			<defs>
				<rect id="SVGID_57_" width="244.546" height="88.963"/>
			</defs>
			<clipPath id="SVGID_58_">
				<use xlink:href="#SVGID_57_"  overflow="visible"/>
			</clipPath>
			<path clip-path="url(#SVGID_58_)" fill="#414042" d="M242.833,81.853c-0.06-0.871-0.459-1.623-1.467-1.623
				c-1.007,0-1.516,0.696-1.598,1.623H242.833z M244.039,85.597c-0.656,0.361-1.41,0.547-2.375,0.547
				c-2.281,0-3.607-1.311-3.607-3.58c0-1.998,1.059-3.645,3.203-3.645c2.564,0,3.287,1.755,3.287,4.168h-4.773
				c0.082,1.112,0.857,1.746,1.973,1.746c0.873,0,1.623-0.323,2.295-0.7v1.464H244.039z"/>
		</g>
	</g>
	<g>
		<g>
			<defs>
				<rect id="SVGID_59_" width="244.546" height="88.963"/>
			</defs>
			<clipPath id="SVGID_60_">
				<use xlink:href="#SVGID_59_"  overflow="visible"/>
			</clipPath>
			<path clip-path="url(#SVGID_60_)" fill="#414042" d="M69.063,1.037c-4.612-3.808-17.011,3.155-30.685,16.325l-0.41,0.374
				l0.775-0.567C50.737,6.659,61.417,1.308,65.135,4.684c4.929,4.476-1.423,29.864-17.643,47.736l-0.222-0.008l-5.929-16.555h-7.638
				L29.789,47.25c-0.527,1.647-1.19,3.403-1.41,5.088h-0.264l-4.973-16.481H12.648l10.41,27.621h10.244
				c0,0,3.529-13.631,3.957-15.021h0.395l3.583,14.971c1.445,0,6.737,0,8.122-0.062c1.033-0.046,4.903-4.771,5.573-5.636
				C77.101,29.194,75.179,6.086,69.063,1.037"/>
		</g>
	</g>
	<g>
		<g>
			<defs>
				<rect id="SVGID_61_" width="244.546" height="88.963"/>
			</defs>
			<clipPath id="SVGID_62_">
				<use xlink:href="#SVGID_61_"  overflow="visible"/>
			</clipPath>
			<path clip-path="url(#SVGID_62_)" fill="#F36F23" d="M4.811,84.896c-4.832-1.379-1.923-17.446,5.244-31.692l0.357-0.892
				l-0.26,0.49C0.826,69.339-2.555,82.76,2.031,86.599c5.419,4.53,25.765,1.471,45.471-19.547h-4.394
				C23.218,84.503,10.363,86.483,4.811,84.896"/>
		</g>
	</g>
</g>
</svg>
