<?xml version="1.0" encoding="utf-8"?>
<!-- Generator: Adobe Illustrator 20.1.0, SVG Export Plug-In . SVG Version: 6.00 Build 0)  -->
<!DOCTYPE svg PUBLIC "-//W3C//DTD SVG 1.1//EN" "http://www.w3.org/Graphics/SVG/1.1/DTD/svg11.dtd">
<svg version="1.1" id="Layer_1" xmlns="http://www.w3.org/2000/svg" xmlns:xlink="http://www.w3.org/1999/xlink" x="0px" y="0px"
	 viewBox="0 0 224 88.4" style="enable-background:new 0 0 224 88.4;" xml:space="preserve">
<style type="text/css">
	.st0{fill:#FFFFFF;}
</style>
<polygon class="st0" points="79,35.2 86.5,35.2 90.1,56.4 90.2,56.4 93.9,35.2 103.3,35.2 107.2,56.4 107.2,56.4 110.9,35.2 
	118,35.2 111.8,62.8 102.4,62.8 98.4,41.6 98.4,41.6 94.7,62.8 85.2,62.8 "/>
<g>
	<g>
		<g>
			<g>
				<path class="st0" d="M133.9,50.5c0-2.4-1.1-4.3-4-4.3c-2.6,0-3.8,1.9-4,4.3H133.9z M126.1,54.6c0.4,2.9,2.6,4,6.1,4
					c1.9,0,4.2-0.4,6.3-1.6v5c-2.3,0.9-4.9,1.3-7.6,1.3c-6.8,0-12-4-12-10.8c0-6.8,4.6-10.8,11.1-10.8c7.7,0,10.4,5.4,10.4,11.6v1.3
					L126.1,54.6L126.1,54.6z"/>
			</g>
		</g>
	</g>
	<g>
		<g>
			<g>
				<path class="st0" d="M144.1,42.2h6.5V46h0.1c1.4-3,4.3-4.3,7.5-4.3c5.6,0,7.9,4,7.9,8.2v12.9H159v-10c0-3.9-1.3-5.2-3.3-5.2
					c-2.9,0-4.4,2-4.4,6.5v8.7h-7.1L144.1,42.2L144.1,42.2z"/>
			</g>
		</g>
	</g>
	<g>
		<g>
			<g>
				<path class="st0" d="M186.7,48.1c-1.3-0.8-2.6-1.2-4.3-1.2c-3.1,0-5.5,2.1-5.5,5.7c0,3.3,2.8,5.4,5.9,5.4c1.6,0,3.3-0.4,4.4-1
					l0.2,5.3c-1.8,0.6-3.9,0.9-5.8,0.9c-6.8,0-12-4-12-10.8c0-6.9,5.2-10.8,12-10.8c2.1,0,4,0.4,5.7,1.1L186.7,48.1z"/>
			</g>
		</g>
	</g>
	<g>
		<g>
			<g>
				<path class="st0" d="M206,52.5c0-3.1-1.4-5.8-4.6-5.8c-3.3,0-4.6,2.7-4.6,5.8c0,3.1,1.4,5.8,4.6,5.8S206,55.6,206,52.5
					 M189.4,52.5c0-6.9,5.2-10.8,12-10.8c6.8,0,12,4,12,10.8c0,6.8-5.2,10.8-12,10.8C194.6,63.3,189.4,59.4,189.4,52.5"/>
			</g>
		</g>
	</g>
	<g>
		<g>
			<g>
				<path class="st0" d="M217.9,37.8c0.5,0,0.8-0.1,0.8-0.6c0-0.5-0.5-0.5-0.9-0.5h-0.7v1.1H217.9z M216.2,35.9h1.7
					c1.2,0,1.8,0.3,1.8,1.4c0,0.8-0.5,1.2-1.2,1.2l1.2,2h-1l-1.1-1.9h-0.5v1.9h-1L216.2,35.9L216.2,35.9z M217.8,41.4
					c1.6,0,2.9-1.3,2.9-3.2c0-1.9-1.3-3.2-2.9-3.2c-1.6,0-2.9,1.3-2.9,3.2C214.9,40.1,216.2,41.4,217.8,41.4 M217.8,34.1
					c2.3,0,4.1,1.8,4.1,4.1c0,2.3-1.8,4.1-4.1,4.1c-2.3,0-4.1-1.8-4.1-4.1C213.7,35.9,215.6,34.1,217.8,34.1"/>
			</g>
		</g>
	</g>
	<g>
		<g>
			<g>
				<path class="st0" d="M69.1,1c-4.6-3.8-17,3.2-30.7,16.3L38,17.7l0.8-0.6C50.7,6.7,61.4,1.3,65.1,4.7c4.9,4.5-1.4,29.9-17.6,47.7
					l-0.2,0l-5.9-16.6h-7.6l-3.9,11.4c-0.5,1.6-1.2,3.4-1.4,5.1h-0.3l-5-16.5H12.6l10.4,27.6h10.2c0,0,3.5-13.6,4-15h0.4l3.6,15
					c1.4,0,6.7,0,8.1-0.1c1,0,4.9-4.8,5.6-5.6C77.1,29.2,75.2,6.1,69.1,1"/>
			</g>
		</g>
	</g>
	<g>
		<g>
			<g>
				<path class="st0" d="M4.8,84.9C0,83.5,2.9,67.4,10.1,53.2l0.4-0.9l-0.3,0.5C0.8,69.3-2.6,82.8,2,86.6
					c5.4,4.5,25.8,1.5,45.5-19.5h-4.4C23.2,84.5,10.4,86.5,4.8,84.9"/>
			</g>
		</g>
	</g>
</g>
</svg>
