<?xml version="1.0" encoding="utf-8"?>
<!-- Generator: Adobe Illustrator 20.1.0, SVG Export Plug-In . SVG Version: 6.00 Build 0)  -->
<!DOCTYPE svg PUBLIC "-//W3C//DTD SVG 1.1//EN" "http://www.w3.org/Graphics/SVG/1.1/DTD/svg11.dtd">
<svg version="1.1" id="Layer_1" xmlns="http://www.w3.org/2000/svg" xmlns:xlink="http://www.w3.org/1999/xlink" x="0px" y="0px"
	 viewBox="0 0 74 89" style="enable-background:new 0 0 74 89;" xml:space="preserve">
<style type="text/css">
	.st0{fill:#FFFFFF;}
	.st1{fill:#F36F23;}
</style>
<g>
	<g>
		<g>
			<g>
				<path class="st0" d="M69.1,1c-4.6-3.8-17,3.2-30.7,16.3L38,17.7l0.8-0.6C50.7,6.7,61.4,1.3,65.1,4.7c4.9,4.5-1.4,29.9-17.6,47.7
					l-0.2,0l-5.9-16.6h-7.6l-3.9,11.4c-0.5,1.6-1.2,3.4-1.4,5.1h-0.3l-5-16.5H12.6l10.4,27.6h10.2c0,0,3.5-13.6,4-15h0.4l3.6,15
					c1.4,0,6.7,0,8.1-0.1c1,0,4.9-4.8,5.6-5.6C77.1,29.2,75.2,6.1,69.1,1"/>
			</g>
		</g>
	</g>
	<g>
		<g>
			<g>
				<path class="st1" d="M4.8,84.9C0,83.5,2.9,67.5,10.1,53.2l0.4-0.9l-0.3,0.5C0.8,69.3-2.6,82.8,2,86.6
					c5.4,4.5,25.8,1.5,45.5-19.5h-4.4C23.2,84.5,10.4,86.5,4.8,84.9"/>
			</g>
		</g>
	</g>
</g>
</svg>
